# xmcd
#
# Track frame offsets:
#	150
#	12123
#	23986
#	37675
#	51406
#	63068
#	77580
#	90349
#	107253
#	119602
#	129359
#	139469
#	152185
#	160679
#	175844
#	189175
#	197535
#	210840
#	223052
#	233967
#	248089
#	260284
#	268498
#	277934
#	292007
#
# Disc length: 4076 seconds
#
# Revision: 1
# Processed by: cddbd v1.5.1PL0 Copyright (c) Steve Scherf et al.
# Submitted via: audiograbber 1.80
#
DISCID=520fea19
DTITLE=Willie Nelson - The Great Willie Nelson
DYEAR=1900
DGENRE=
TTITLE0=Is There Something on Your Mind
TTITLE1=I Hope So
TTITLE2=Everything But You
TTITLE3=A Moment Isn't Very Long
TTITLE4=Some Other Time
TTITLE5=Will You Remember Mine
TTITLE6=She's Not for You
TTITLE7=I Let My Mind Wander
TTITLE8=I Can't Find the Time
TTITLE9=Ashamed
TTITLE10=The Healing Hands of Time
TTITLE11=And Old Arms Won't Do
TTITLE12=Slow Down Old World
TTITLE13=And So Will My Love
TTITLE14=I Just Don't Understand
TTITLE15=You Wouldn't Cross the Street to Say Good-Bye
TTITLE16=You'll Always Have Someone
TTITLE17=Following Me Around
TTITLE18=Blame It on the Times
TTITLE19=So Much to Do
TTITLE20=End of Understanding
TTITLE21=Things to Remember
TTITLE22=One Step Before Losing You
TTITLE23=Home Is Where You're Happy
TTITLE24=No Tomorrow in Sight
EXTD=
EXTT0=
EXTT1=
EXTT2=
EXTT3=
EXTT4=
EXTT5=
EXTT6=
EXTT7=
EXTT8=
EXTT9=
EXTT10=
EXTT11=
EXTT12=
EXTT13=
EXTT14=
EXTT15=
EXTT16=
EXTT17=
EXTT18=
EXTT19=
EXTT20=
EXTT21=
EXTT22=
EXTT23=
EXTT24=
PLAYORDER=
